<?xml version="1.0" encoding="utf-8"?>
<!-- Generator: Adobe Illustrator 25.3.1, SVG Export Plug-In . SVG Version: 6.00 Build 0)  -->
<svg version="1.1" id="Layer_1" xmlns="http://www.w3.org/2000/svg" xmlns:xlink="http://www.w3.org/1999/xlink" x="0px" y="0px"
	 viewBox="0 0 60 60" style="enable-background:new 0 0 60 60;" xml:space="preserve">
<style type="text/css">
	.st0{fill-rule:evenodd;clip-rule:evenodd;fill:#12d23d;}
	.st1{fill:#12d23d;}
	.st2{fill-rule:evenodd;clip-rule:evenodd;fill:#ffffff;}
</style>
<path class="st0" d="M30,59.5c16.3,0,29.5-13.2,29.5-29.5S46.3,0.5,30,0.5S0.5,13.7,0.5,30S13.7,59.5,30,59.5"/>
<path class="st1" d="M30,59.5C13.8,59.5,0.5,46.2,0.5,30S13.8,0.5,30,0.5S59.5,13.8,59.5,30S46.2,59.5,30,59.5 M30,2.3
	C14.7,2.3,2.3,14.7,2.3,30S14.7,57.7,30,57.7S57.7,45.3,57.7,30S45.3,2.3,30,2.3"/>
<path class="st2" d="M55.2,30c0,13.9-11.3,25.2-25.2,25.2S4.9,43.9,4.9,30S16.2,4.9,30.1,4.9S55.2,16.1,55.2,30 M45,36.6
	c-0.2-0.4-0.7-0.5-1.5-0.9c-0.7-0.4-4.2-2-4.9-2.2s-1.1-0.4-1.6,0.4c-0.5,0.7-1.8,2.4-2.2,2.7c-0.4,0.5-0.9,0.5-1.6,0.2
	c-0.7-0.4-3.1-1.1-5.9-3.5c-2.2-1.8-3.7-4.2-4-4.9c-0.4-0.7,0-1.1,0.4-1.5s0.7-0.9,1.1-1.3s0.5-0.7,0.7-1.3c0.2-0.5,0.2-0.9,0-1.3
	s-1.6-3.8-2.2-5.3c-0.5-1.5-1.3-1.3-1.6-1.3h-1.5c-0.5,0-1.3,0.2-1.8,0.9c-0.7,0.7-2.6,2.4-2.6,6c0,3.5,2.6,7,2.9,7.3
	c0.4,0.5,4.9,7.9,12.3,10.8s7.3,1.8,8.6,1.8c1.3-0.2,4.2-1.6,4.9-3.5C45.2,38.3,45.2,37,45,36.6 M59.6,30
	c0,16.4-13.2,29.6-29.6,29.6S0.5,46.4,0.5,30S13.7,0.5,30.1,0.5S59.6,13.7,59.6,30"/>
</svg>
