<svg shape-rendering="geometricPrecision" image-rendering="optimizeQuality" text-rendering="geometricPrecision"
    xmlns="http://www.w3.org/2000/svg" viewBox="0 0 2488 2500" xml:space="preserve">
    <circle cx="1244" cy="1250" r="1214.6" style="fill-rule:evenodd;clip-rule:evenodd;fill:#25d366" />
    <path
        d="M1244 2500c-168.7 0-332.4-33.1-486.6-98.2-74.1-31.3-145.5-70.1-212.3-115.3-66.2-44.7-128.4-96.1-185-152.6-56.6-56.6-107.9-118.8-152.6-185-45.1-66.8-83.9-138.3-115.3-212.3C27.1 1582.4-6 1418.7-6 1250s33.1-332.4 98.2-486.6c31.3-74.1 70.1-145.5 115.3-212.3 44.7-66.2 96.1-128.4 152.6-185s118.8-107.9 185-152.6c66.8-45.1 138.3-83.9 212.3-115.3C911.6 33.1 1075.3 0 1244 0s332.4 33.1 486.6 98.2c74.1 31.3 145.5 70.1 212.3 115.3 66.2 44.7 128.4 96.1 185 152.6 56.6 56.6 107.9 118.8 152.6 185 45.1 66.8 83.9 138.3 115.3 212.3 65.2 154.1 98.2 317.8 98.2 486.6s-33.1 332.4-98.2 486.6c-31.3 74.1-70.1 145.5-115.3 212.3-44.7 66.2-96.1 128.4-152.6 185-56.6 56.6-118.8 107.9-185 152.6-66.8 45.1-138.3 83.9-212.3 115.3-154.2 65.1-317.9 98.2-486.6 98.2m0-2429.1c-159.2 0-313.6 31.2-459 92.6-69.9 29.5-137.2 66.1-200.3 108.7-62.4 42.2-121.2 90.6-174.5 144-53.4 53.4-101.8 112.1-144 174.5-42.6 63-79.2 130.4-108.7 200.3-61.5 145.3-92.6 299.8-92.6 459s31.2 313.6 92.6 459c29.5 69.9 66.1 137.2 108.7 200.3 42.2 62.4 90.6 121.2 144 174.5 53.4 53.4 112.1 101.8 174.5 144 63 42.6 130.4 79.2 200.3 108.7 145.3 61.5 299.8 92.6 459 92.6s313.6-31.2 459-92.6c69.9-29.5 137.2-66.1 200.3-108.7 62.4-42.2 121.2-90.6 174.5-144 53.4-53.4 101.8-112.1 144-174.5 42.6-63 79.2-130.4 108.7-200.3 61.5-145.3 92.6-299.8 92.6-459s-31.2-313.6-92.6-459c-29.5-69.9-66.1-137.2-108.7-200.3-42.2-62.4-90.6-121.2-144-174.5-53.4-53.4-112.1-101.8-174.5-144-63-42.6-130.4-79.2-200.3-108.7-145.4-61.4-299.8-92.6-459-92.6"
        style="fill:#25d366" />
    <path
        d="M766.9 1908c9.6 6 29.9 6 75.7 6 194.9-.4 363.1-.8 482.7-.8 558.9 0 544.5-588.4 283-661.7 38.3-67.8 212.5-195.3 104.8-458.4-106.8-260.3-565.2-201.3-879-201.3-116 0-98.5 86.1-98.1 219.2.8 211.3.4 782.9 0 1030 .2 49.9 15.4 57.8 30.9 67m242-215.7h283.8c120.8-.4 228.4-56.6 225.6-177-2-113.2-77.3-150.7-182.2-161-99.3 1.2-213.3 1.2-327.3 1.2zm0-564.4c210.1-2.8 291 8.4 405.8-20.3 78.9-44.6 113.2-210.9.4-267.1-78.1-39.1-310.1-25.9-406.2-21.9z"
        style="fill-rule:evenodd;clip-rule:evenodd;fill:#fefefe" />
</svg>